<svg width="21" height="21" viewBox="0 0 21 21" fill="none" xmlns="http://www.w3.org/2000/svg">
<g>
<path d="M17.433 2.71557H16.1964V0.703139C16.1964 0.3152 15.8812 0 15.4933 0C15.1054 0 14.7902 0.3152 14.7902 0.703139V2.71557H10.7411V0.703139C10.7411 0.3152 10.4259 0 10.0379 0C9.64997 0 9.33477 0.3152 9.33477 0.703139V2.71557H5.28566V0.703139C5.28566 0.3152 4.97046 0 4.58253 0C4.19459 0 3.87939 0.3152 3.87939 0.703139V2.71557H2.64283C1.18806 2.71557 0 3.90363 0 5.3584V17.8209C0 19.2757 1.18806 20.4638 2.64283 20.4638H17.433C18.8878 20.4638 20.0758 19.2757 20.0758 17.8209V5.3584C20.0758 3.90363 18.8878 2.71557 17.433 2.71557ZM18.6695 17.8209C18.6695 18.4998 18.1119 19.0575 17.433 19.0575H2.64283C1.96394 19.0575 1.40628 18.4998 1.40628 17.8209V5.3584C1.40628 4.67951 1.96394 4.12185 2.64283 4.12185H3.87939V5.0917C3.87939 5.47963 4.19459 5.79483 4.58253 5.79483C4.97046 5.79483 5.28566 5.47963 5.28566 5.0917V4.12185H9.33477V5.0917C9.33477 5.47963 9.64997 5.79483 10.0379 5.79483C10.4259 5.79483 10.7411 5.47963 10.7411 5.0917V4.12185H14.7902V5.0917C14.7902 5.47963 15.1054 5.79483 15.4933 5.79483C15.8812 5.79483 16.1964 5.47963 16.1964 5.0917V4.12185H17.433C18.1119 4.12185 18.6695 4.67951 18.6695 5.3584V17.8209Z" fill="black"/>
<path d="M6.35265 9.01959H3.75831C3.37038 9.01959 3.05518 9.33479 3.05518 9.72273C3.05518 10.1107 3.37038 10.4259 3.75831 10.4259H6.35265C6.74059 10.4259 7.05579 10.1107 7.05579 9.72273C7.05579 9.33479 6.74059 9.01959 6.35265 9.01959Z" fill="black"/>
<path d="M6.35265 15.566H3.75831C3.37038 15.566 3.05518 15.8812 3.05518 16.2692C3.05518 16.6571 3.37038 16.9723 3.75831 16.9723H6.35265C6.74059 16.9723 7.05579 16.6571 7.05579 16.2692C7.05579 15.8812 6.74059 15.566 6.35265 15.566Z" fill="black"/>
<path d="M6.35265 12.2928H3.75831C3.37038 12.2928 3.05518 12.608 3.05518 12.996C3.05518 13.3839 3.37038 13.6991 3.75831 13.6991H6.35265C6.74059 13.6991 7.05579 13.3839 7.05579 12.996C7.05579 12.608 6.74059 12.2928 6.35265 12.2928Z" fill="black"/>
<path d="M11.3471 9.01959H8.72853C8.34059 9.01959 8.02539 9.33479 8.02539 9.72273C8.02539 10.1107 8.34059 10.4259 8.72853 10.4259H11.3229C11.7108 10.4259 12.026 10.1107 12.026 9.72273C12.026 9.33479 11.7351 9.01959 11.3471 9.01959Z" fill="black"/>
<path d="M11.3471 15.566H8.72853C8.34059 15.566 8.02539 15.8812 8.02539 16.2692C8.02539 16.6571 8.34059 16.9723 8.72853 16.9723H11.3229C11.7108 16.9723 12.026 16.6571 12.026 16.2692C12.026 15.8812 11.7351 15.566 11.3471 15.566Z" fill="black"/>
<path d="M11.3471 12.2928H8.72853C8.34059 12.2928 8.02539 12.608 8.02539 12.996C8.02539 13.3839 8.34059 13.6991 8.72853 13.6991H11.3229C11.7108 13.6991 12.026 13.3839 12.026 12.996C12.026 12.608 11.7351 12.2928 11.3471 12.2928Z" fill="black"/>
<path d="M16.3175 9.01959H13.7232C13.3352 9.01959 13.02 9.33479 13.02 9.72273C13.02 10.1107 13.3352 10.4259 13.7232 10.4259H16.3175C16.7054 10.4259 17.0206 10.1107 17.0206 9.72273C17.0206 9.33479 16.7054 9.01959 16.3175 9.01959Z" fill="black"/>
<path d="M16.3175 15.566H13.7232C13.3352 15.566 13.02 15.8812 13.02 16.2692C13.02 16.6571 13.3352 16.9723 13.7232 16.9723H16.3175C16.7054 16.9723 17.0206 16.6571 17.0206 16.2692C17.0206 15.8812 16.7054 15.566 16.3175 15.566Z" fill="black"/>
<path d="M16.3175 12.2928H13.7232C13.3352 12.2928 13.02 12.608 13.02 12.996C13.02 13.3839 13.3352 13.6991 13.7232 13.6991H16.3175C16.7054 13.6991 17.0206 13.3839 17.0206 12.996C17.0206 12.608 16.7054 12.2928 16.3175 12.2928Z" fill="black"/>
</g>
</svg>
